<?xml version="1.0" encoding="utf-8"?>
<!-- Generator: Adobe Illustrator 25.1.0, SVG Export Plug-In . SVG Version: 6.00 Build 0)  -->
<svg version="1.1" id="Layer_1" xmlns="http://www.w3.org/2000/svg" xmlns:xlink="http://www.w3.org/1999/xlink" x="0px" y="0px"
	 viewBox="0 0 96 96" style="enable-background:new 0 0 96 96;" xml:space="preserve">
<style type="text/css">
	.st0{display:none;}
	.st1{fill:#AAA8AD;}
</style>
<g id="Grid" class="st0">
</g>
<g id="Home">
</g>
<g id="Search">
</g>
<g id="Plus">
</g>
<g id="Minus">
</g>
<g id="Setting">
</g>
<g id="People">
</g>
<g id="Statistic">
</g>
<g id="Left_Arrow">
</g>
<g id="Right_Arrow">
</g>
<g id="Up_Arrow">
</g>
<g id="Bottom_Arrow">
	<g>
		<g>
			<path class="st1" d="M48,85.5c-0.6,0-1-0.4-1-1v-81c0-0.6,0.4-1,1-1s1,0.4,1,1v81C49,85.1,48.6,85.5,48,85.5z"/>
		</g>
		<g>
			<path class="st1" d="M48,93.5c-0.7,0-1.3-0.2-1.8-0.7L25,71.5c-0.4-0.4-0.4-1,0-1.4s1-0.4,1.4,0l21.2,21.2c0.2,0.2,0.6,0.2,0.8,0
				l21.2-21.2c0.4-0.4,1-0.4,1.4,0s0.4,1,0,1.4L49.8,92.7C49.3,93.2,48.7,93.5,48,93.5z"/>
		</g>
	</g>
</g>
<g id="Attachment">
</g>
<g id="Calendar">
</g>
<g id="Price">
</g>
<g id="News">
</g>
</svg>
